<svg xmlns="http://www.w3.org/2000/svg" xmlns:svgjs="http://svgjs.com/svgjs" xmlns:xlink="http://www.w3.org/1999/xlink" style="enable-background:new 0 0 512 512" width="512" height="512" x="0" y="0" version="1.1" viewBox="0 0 22.88 22.88" xml:space="preserve"><g><path xmlns="http://www.w3.org/2000/svg" fill="#fff" d="M0.324,1.909c-0.429-0.429-0.429-1.143,0-1.587c0.444-0.429,1.143-0.429,1.587,0l9.523,9.539 l9.539-9.539c0.429-0.429,1.143-0.429,1.571,0c0.444,0.444,0.444,1.159,0,1.587l-9.523,9.524l9.523,9.539 c0.444,0.429,0.444,1.143,0,1.587c-0.429,0.429-1.143,0.429-1.571,0l-9.539-9.539l-9.523,9.539c-0.444,0.429-1.143,0.429-1.587,0 c-0.429-0.444-0.429-1.159,0-1.587l9.523-9.539L0.324,1.909z" data-original="#1e201d"/></g></svg>